<svg width="42" height="42" viewBox="0 0 42 42" fill="none" xmlns="http://www.w3.org/2000/svg">
<path d="M14.7 41.2C12.8 41.2 11.0083 40.85 9.32499 40.15C7.64165 39.45 6.13332 38.45 4.79999 37.15C3.53332 35.85 2.54999 34.3667 1.84999 32.7C1.14999 31.0333 0.799988 29.2333 0.799988 27.3C0.799988 24.6 1.49999 22.1333 2.89999 19.9C4.29999 17.6667 6.14999 16.0167 8.44999 14.95C9.11665 13.5833 10.0083 12.3417 11.125 11.225C12.2417 10.1083 13.5333 9.18332 15 8.44999C16.0667 6.08332 17.7083 4.21665 19.925 2.84999C22.1417 1.48332 24.6167 0.799988 27.35 0.799988C29.25 0.799988 31.0333 1.14999 32.7 1.84999C34.3667 2.54999 35.85 3.54999 37.15 4.84999C38.4167 6.18332 39.4083 7.68332 40.125 9.34999C40.8417 11.0167 41.2 12.7833 41.2 14.65C41.2 17.4167 40.5667 19.8583 39.3 21.975C38.0333 24.0917 36.1167 25.7667 33.55 27C32.9167 28.4333 32.0417 29.7167 30.925 30.85C29.8083 31.9833 28.5167 32.8833 27.05 33.55C25.95 35.9167 24.3083 37.7833 22.125 39.15C19.9417 40.5167 17.4667 41.2 14.7 41.2ZM14.7 37.9C16.1667 37.9333 17.5667 37.6333 18.9 37C20.2333 36.3667 21.3 35.5333 22.1 34.5C20.0333 34.7 18.0583 34.4833 16.175 33.85C14.2917 33.2167 12.6333 32.2 11.2 30.8C9.76665 29.3667 8.73332 27.7083 8.09999 25.825C7.46665 23.9417 7.24999 21.9667 7.44999 19.9C6.41665 20.7333 5.59999 21.8167 4.99999 23.15C4.39999 24.4833 4.09999 25.8667 4.09999 27.3C4.09999 28.8 4.35832 30.1917 4.87499 31.475C5.39165 32.7583 6.14999 33.8833 7.14999 34.85C8.14999 35.8167 9.29165 36.5667 10.575 37.1C11.8583 37.6333 13.2333 37.9 14.7 37.9ZM21 31.55C22.4333 31.55 23.8083 31.25 25.125 30.65C26.4417 30.05 27.55 29.2333 28.45 28.2C26.3833 28.4 24.4167 28.1583 22.55 27.475C20.6833 26.7917 19.0333 25.7333 17.6 24.3C16.1667 22.8333 15.125 21.1583 14.475 19.275C13.825 17.3917 13.6167 15.4167 13.85 13.35C12.5833 14.5833 11.7 15.7667 11.2 16.9C10.7 18.0333 10.45 19.4 10.45 21C10.45 22.4667 10.7083 23.8417 11.225 25.125C11.7417 26.4083 12.5 27.55 13.5 28.55C14.4667 29.5167 15.6 30.2583 16.9 30.775C18.2 31.2917 19.5667 31.55 21 31.55ZM27.55 25.1C28.1167 25.1 28.6833 25.05 29.25 24.95C29.8167 24.85 30.4333 24.6667 31.1 24.4C31.7667 22.4667 31.8667 20.55 31.4 18.65C30.9333 16.75 29.9667 15.05 28.5 13.55C27.1 12.1833 25.3583 11.25 23.275 10.75C21.1917 10.25 19.25 10.3 17.45 10.9C17.2833 11.4667 17.1667 12.0417 17.1 12.625C17.0333 13.2083 17 13.8833 17 14.65C17 16.05 17.2583 17.3917 17.775 18.675C18.2917 19.9583 19.05 21.1167 20.05 22.15C21.05 23.2167 22.1917 23.975 23.475 24.425C24.7583 24.875 26.1167 25.1 27.55 25.1ZM34.8 22.15C35.8667 21.25 36.65 20.1917 37.15 18.975C37.65 17.7583 37.9 16.3167 37.9 14.65C37.9 13.2167 37.6417 11.8667 37.125 10.6C36.6083 9.33332 35.85 8.19999 34.85 7.19999C33.8167 6.16665 32.6667 5.39165 31.4 4.87499C30.1333 4.35832 28.7833 4.09999 27.35 4.09999C25.7833 4.09999 24.3583 4.35832 23.075 4.87499C21.7917 5.39165 20.65 6.19999 19.65 7.29999C21.6833 7.09999 23.6667 7.34165 25.6 8.02499C27.5333 8.70832 29.25 9.78332 30.75 11.25C32.2833 12.7167 33.3917 14.3917 34.075 16.275C34.7583 18.1583 35 20.1167 34.8 22.15Z" fill="#1C1B1F"/>
</svg>
