<svg width="42" height="42" viewBox="0 0 42 42" fill="none" xmlns="http://www.w3.org/2000/svg">
<path d="M20.9502 28.75L28.6502 21L20.9502 13.25L18.5502 15.65L22.1502 19.2999H13.2002V22.7H22.1502L18.5502 26.35L20.9502 28.75ZM21.0002 41.2999C18.2335 41.2999 15.6085 40.7666 13.1252 39.7C10.6419 38.6333 8.48353 37.1833 6.6502 35.3499C4.81686 33.5166 3.36686 31.3666 2.3002 28.9C1.23353 26.4333 0.700195 23.7999 0.700195 21C0.700195 18.2 1.23353 15.5583 2.3002 13.075C3.36686 10.5916 4.81686 8.44162 6.6502 6.62495C8.48353 4.80828 10.6335 3.36662 13.1002 2.29995C15.5669 1.23328 18.2002 0.699951 21.0002 0.699951C23.8002 0.699951 26.4419 1.23328 28.9252 2.29995C31.4085 3.36662 33.5585 4.80828 35.3752 6.62495C37.1919 8.44162 38.6335 10.5833 39.7002 13.05C40.7669 15.5166 41.3002 18.1666 41.3002 21C41.3002 23.7999 40.7669 26.4333 39.7002 28.9C38.6335 31.3666 37.1919 33.5166 35.3752 35.3499C33.5585 37.1833 31.4169 38.6333 28.9502 39.7C26.4835 40.7666 23.8335 41.2999 21.0002 41.2999Z" fill="#1C1B1F"/>
</svg>
