<svg width="34" height="42" viewBox="0 0 34 42" fill="none" xmlns="http://www.w3.org/2000/svg">
<path d="M14.344 35.4717C15.7306 35.4717 16.9152 34.9899 17.8979 34.0263C18.8805 33.0626 19.3718 31.8912 19.3718 30.5119V20.2685H25.1718V17.2685H17.3718V26.7141C16.9971 26.4061 16.5441 26.1648 16.0126 25.9902C15.4811 25.8156 14.9269 25.7282 14.35 25.7282C13.0261 25.7282 11.9082 26.1926 10.9962 27.1212C10.0842 28.0498 9.62826 29.1741 9.62826 30.494C9.62826 31.8473 10.0842 33.0152 10.9962 33.9978C11.9082 34.9804 13.0241 35.4717 14.344 35.4717ZM4.10761 41.2989C3.18764 41.2989 2.38989 40.9611 1.71436 40.2856C1.03886 39.6101 0.701111 38.8124 0.701111 37.8924V4.10759C0.701111 3.18435 1.03886 2.38381 1.71436 1.70594C2.38989 1.02804 3.18764 0.689087 4.10761 0.689087H22.1815L33.3109 11.8185V37.8924C33.3109 38.8124 32.972 39.6101 32.2941 40.2856C31.6162 40.9611 30.8156 41.2989 29.8924 41.2989H4.10761ZM20.4424 13.4076H29.8924L20.4424 4.10759V13.4076Z" fill="#1C1B1F"/>
</svg>
