<svg width="46" height="34" viewBox="0 0 46 34" fill="none" xmlns="http://www.w3.org/2000/svg">
<path d="M21.4283 33.2988H11.5739C8.56884 33.2988 6.00942 32.2479 3.89566 30.1461C1.78189 28.0443 0.725006 25.4869 0.725006 22.4738C0.725006 19.826 1.56232 17.4888 3.23696 15.4624C4.91159 13.4359 7.05217 12.2147 9.65871 11.7988C10.3572 8.54158 11.9558 5.88398 14.4544 3.82601C16.9529 1.76801 19.8348 0.739014 23.1 0.739014C26.8652 0.739014 30.0511 2.10135 32.6576 4.82601C35.2641 7.55065 36.5993 10.8249 36.6631 14.6488V15.8488C39.087 15.8539 41.1283 16.6847 42.787 18.3412C44.4457 19.9977 45.275 22.0753 45.275 24.5738C45.275 26.9615 44.4178 29.0126 42.7033 30.7271C40.9888 32.4416 38.9377 33.2988 36.55 33.2988H24.5718V17.5423L28.7815 21.7641L31.0392 19.5304L23 11.4912L14.9728 19.5304L17.2185 21.7641L21.4283 17.5423V33.2988Z" fill="#1C1B1F"/>
</svg>
