<svg width="42" height="42" viewBox="0 0 42 42" fill="none" xmlns="http://www.w3.org/2000/svg">
<path d="M34.75 41.2987C30.6435 41.2987 26.5639 40.2927 22.5114 38.2808C18.4589 36.2688 14.8167 33.6469 11.5848 30.415C8.35291 27.1831 5.73098 23.5409 3.71901 19.4884C1.70708 15.4359 0.701111 11.3563 0.701111 7.24981C0.701111 6.52725 0.941294 5.92378 1.42166 5.43941C1.90206 4.95505 2.50753 4.71286 3.23806 4.71286H10.2261C10.8153 4.71286 11.326 4.8971 11.7582 5.26556C12.1904 5.63406 12.4725 6.14476 12.6044 6.79766L13.9424 12.9183C14.033 13.4806 14.0246 13.9853 13.9174 14.4324C13.8102 14.8795 13.5913 15.2603 13.2609 15.5748L8.18916 20.5531C10.008 23.5415 12.0319 26.1398 14.2609 28.3482C16.4899 30.5565 19.0073 32.4288 21.8131 33.965L26.6228 29.0292C27.0199 28.6067 27.4651 28.3125 27.9582 28.1466C28.4513 27.9806 28.9623 27.9636 29.4913 28.0955L35.2022 29.3596C35.8322 29.5119 36.3371 29.8169 36.7171 30.2744C37.097 30.7319 37.287 31.2871 37.287 31.94V38.7618C37.287 39.4843 37.0448 40.0878 36.5604 40.5722C36.076 41.0565 35.4726 41.2987 34.75 41.2987ZM31.5665 20.1553C28.8649 20.1553 26.5692 19.2086 24.6794 17.3152C22.7895 15.4218 21.8446 13.1243 21.8446 10.4228C21.8446 7.72128 22.7913 5.4236 24.6847 3.52976C26.5781 1.6359 28.8755 0.688965 31.5771 0.688965C34.2786 0.688965 36.5763 1.63766 38.4701 3.53506C40.364 5.43243 41.3109 7.73188 41.3109 10.4334C41.3109 13.1349 40.3622 15.4306 38.4648 17.3205C36.5674 19.2104 34.268 20.1553 31.5665 20.1553ZM30.4163 16.5836H32.7392V8.58356H30.4163V16.5836ZM31.5718 6.58356C31.8863 6.58356 32.1594 6.46961 32.3913 6.24171C32.6232 6.01381 32.7392 5.74261 32.7392 5.42811C32.7392 5.11361 32.6232 4.84043 32.3913 4.60856C32.1594 4.37666 31.8863 4.26071 31.5718 4.26071C31.2573 4.26071 30.9861 4.37666 30.7582 4.60856C30.5303 4.84043 30.4163 5.11361 30.4163 5.42811C30.4163 5.74261 30.5303 6.01381 30.7582 6.24171C30.9861 6.46961 31.2573 6.58356 31.5718 6.58356Z" fill="#1C1B1F"/>
</svg>
