<svg width="42" height="42" viewBox="0 0 42 42" fill="none" xmlns="http://www.w3.org/2000/svg">
<path d="M16.724 37.3542C15.8493 36.0289 15.1347 34.6598 14.58 33.2472C14.0253 31.8345 13.5646 30.2361 13.1979 28.452H5.69572C6.84646 30.7774 8.34917 32.6861 10.2039 34.1781C12.0586 35.6702 14.2319 36.7289 16.724 37.3542ZM4.70767 25.476H12.6479C12.5479 24.676 12.4813 23.9549 12.4479 23.3129C12.4146 22.6709 12.3979 21.9332 12.3979 21.0999C12.3979 20.4078 12.4063 19.7055 12.4229 18.9928C12.4396 18.2801 12.4979 17.4738 12.5979 16.5738H4.70767C4.47434 17.3738 4.316 18.1134 4.23267 18.7928C4.14934 19.4721 4.10767 20.2412 4.10767 21.0999C4.10767 21.9665 4.14934 22.7125 4.23267 23.3379C4.316 23.9633 4.47434 24.676 4.70767 25.476ZM5.69572 13.5977H13.1479C13.5479 11.7803 14.0419 10.1383 14.63 8.67162C15.218 7.20495 15.9327 5.84625 16.774 4.59552C13.9566 5.56218 11.7186 6.71653 10.0599 8.05857C8.40117 9.4006 6.94646 11.247 5.69572 13.5977ZM16.2479 13.5977H25.8022C25.2943 11.4723 24.6506 9.63865 23.8713 8.09662C23.0919 6.55458 22.1309 5.18755 20.9881 3.99552C19.8454 5.22088 18.8843 6.62958 18.105 8.22162C17.3256 9.81365 16.7066 11.6057 16.2479 13.5977ZM28.9022 13.5977H36.2925C35.1338 11.447 33.6001 9.60693 31.6914 8.07757C29.7827 6.54823 27.6363 5.40422 25.2522 4.64552C26.0936 5.89625 26.8039 7.25495 27.3832 8.72162C27.9626 10.1883 28.4689 11.8136 28.9022 13.5977ZM21.0001 41.2988C18.1602 41.2988 15.5057 40.7825 13.0365 39.7499C10.5673 38.7173 8.41872 37.289 6.59082 35.4651C4.76292 33.6412 3.32434 31.5009 2.27507 29.0444C1.22581 26.5879 0.701172 23.9397 0.701172 21.0999C0.701172 18.26 1.22581 15.5971 2.27507 13.1113C3.32434 10.6254 4.76292 8.46653 6.59082 6.63467C8.41872 4.80276 10.5673 3.35385 13.0365 2.28792C15.5057 1.22195 18.1602 0.688965 21.0001 0.688965C23.8399 0.688965 26.4945 1.22195 28.9637 2.28792C31.4329 3.35385 33.5814 4.80276 35.4093 6.63467C37.2372 8.46653 38.6778 10.6254 39.7311 13.1113C40.7843 15.5971 41.311 18.26 41.311 21.0999C41.311 21.6346 41.2943 22.1674 41.261 22.6982C41.2276 23.229 41.165 23.7618 41.0729 24.2966H37.5544C37.6718 23.7618 37.7555 23.252 37.8055 22.7673C37.8555 22.2825 37.8805 21.7267 37.8805 21.0999C37.8805 20.2412 37.8369 19.4721 37.7495 18.7928C37.6622 18.1134 37.5059 17.3738 37.2805 16.5738H29.3522C29.4363 17.5738 29.5033 18.3968 29.5533 19.0428C29.6033 19.6888 29.6283 20.3745 29.6283 21.0999C29.6283 21.5267 29.62 21.9658 29.6033 22.4173C29.5867 22.8687 29.549 23.4951 29.4903 24.2966H26.4403C26.499 23.6285 26.545 23.0604 26.5783 22.5923C26.6117 22.1241 26.6283 21.6267 26.6283 21.0999C26.6283 20.4078 26.6137 19.7388 26.5843 19.0928C26.555 18.4468 26.4776 17.6071 26.3522 16.5738H15.6979C15.5646 17.6071 15.4813 18.4468 15.4479 19.0928C15.4146 19.7388 15.3979 20.4078 15.3979 21.0999C15.3979 21.7665 15.4146 22.4042 15.4479 23.0129C15.4813 23.6216 15.5646 24.4426 15.6979 25.476H24.2968V28.452H16.2479C16.9066 30.944 17.6006 32.9194 18.33 34.3781C19.0593 35.8368 19.9454 37.0122 20.9881 37.9042C21.6483 37.2187 22.256 36.4539 22.8115 35.6097C23.3669 34.7655 23.862 33.8879 24.2968 32.9771V41.0107C23.7541 41.1107 23.2109 41.1837 22.6675 41.2298C22.124 41.2758 21.5682 41.2988 21.0001 41.2988ZM36.9001 39.3488L30.7033 33.1521V38.0031H27.2968V27.2966H38.0033V30.7031H33.1023L39.287 36.8999L36.9001 39.3488Z" fill="#1C1B1F"/>
</svg>
