<svg width="42" height="42" viewBox="0 0 42 42" fill="none" xmlns="http://www.w3.org/2000/svg">
<path d="M36.0004 39.45L21.0004 24.45L15.2504 30.2C15.6171 30.7333 15.8421 31.2583 15.9254 31.775C16.0087 32.2916 16.0504 32.8666 16.0504 33.5C16.0504 35.6666 15.3254 37.4666 13.8754 38.9C12.4254 40.3333 10.6171 41.0499 8.45039 41.0499C6.31706 41.0499 4.52539 40.3333 3.07539 38.9C1.62539 37.4666 0.900391 35.6666 0.900391 33.5C0.900391 31.3333 1.62539 29.5333 3.07539 28.1C4.52539 26.6666 6.31706 25.95 8.45039 25.95C9.05039 25.95 9.63372 26.025 10.2004 26.1749C10.7671 26.3249 11.3671 26.5666 12.0004 26.9L17.6504 21.2L11.9004 15.4C11.3337 15.6666 10.7671 15.8416 10.2004 15.925C9.63372 16.0083 9.05039 16.05 8.45039 16.05C6.31706 16.05 4.52539 15.3333 3.07539 13.9C1.62539 12.4666 0.900391 10.6666 0.900391 8.49995C0.900391 6.33328 1.62539 4.53328 3.07539 3.09995C4.52539 1.66662 6.31706 0.949951 8.45039 0.949951C10.6171 0.949951 12.4254 1.66662 13.8754 3.09995C15.3254 4.53328 16.0504 6.33328 16.0504 8.49995C16.0504 9.13328 16.0087 9.72495 15.9254 10.275C15.8421 10.825 15.6671 11.3333 15.4004 11.8L41.1504 37.5499V39.45H36.0004ZM27.1004 18.65L23.6004 15.15L36.0004 2.74995H41.1504V4.59995L27.1004 18.65ZM8.45039 12.95C9.71706 12.95 10.7754 12.5166 11.6254 11.65C12.4754 10.7833 12.9004 9.73328 12.9004 8.49995C12.9004 7.26662 12.4754 6.21662 11.6254 5.34995C10.7754 4.48328 9.71706 4.04995 8.45039 4.04995C7.21706 4.04995 6.17539 4.48328 5.32539 5.34995C4.47539 6.21662 4.05039 7.26662 4.05039 8.49995C4.05039 9.73328 4.47539 10.7833 5.32539 11.65C6.17539 12.5166 7.21706 12.95 8.45039 12.95ZM21.1004 22.35C21.4337 22.35 21.7087 22.2416 21.9254 22.025C22.1421 21.8083 22.2504 21.5333 22.2504 21.2C22.2504 20.8666 22.1421 20.5916 21.9254 20.375C21.7087 20.1583 21.4337 20.0499 21.1004 20.0499C20.8004 20.0499 20.5337 20.1583 20.3004 20.375C20.0671 20.5916 19.9504 20.8666 19.9504 21.2C19.9504 21.5333 20.0671 21.8083 20.3004 22.025C20.5337 22.2416 20.8004 22.35 21.1004 22.35ZM8.45039 37.95C9.71706 37.95 10.7754 37.5166 11.6254 36.65C12.4754 35.7833 12.9004 34.7333 12.9004 33.5C12.9004 32.2666 12.4754 31.2166 11.6254 30.3499C10.7754 29.4833 9.71706 29.0499 8.45039 29.0499C7.21706 29.0499 6.17539 29.4833 5.32539 30.3499C4.47539 31.2166 4.05039 32.2666 4.05039 33.5C4.05039 34.7333 4.47539 35.7833 5.32539 36.65C6.17539 37.5166 7.21706 37.95 8.45039 37.95Z" fill="#1C1B1F"/>
</svg>
