<svg width="36" height="42" viewBox="0 0 36 42" fill="none" xmlns="http://www.w3.org/2000/svg">
<path d="M20.3434 41.5141L19.9152 35.763L17.8793 35.751C13.0808 35.6554 9.00016 33.8904 5.63749 30.456C2.27479 27.0215 0.593445 22.901 0.593445 18.0945C0.593445 13.213 2.32548 9.05187 5.78954 5.6111C9.25361 2.17033 13.4421 0.449951 18.355 0.449951C20.7741 0.449951 23.0177 0.887468 25.0857 1.7625C27.1537 2.63757 28.9555 3.85968 30.4909 5.42885C32.0263 6.99802 33.2314 8.85022 34.1062 10.9855C34.9811 13.1207 35.4185 15.4484 35.4185 17.9685C35.4185 20.2561 35.0656 22.5318 34.3598 24.7956C33.654 27.0594 32.6446 29.2152 31.3315 31.263C30.0185 33.3108 28.4308 35.2067 26.5685 36.9505C24.7062 38.6943 22.6311 40.2155 20.3434 41.5141ZM18.3619 29.8021C18.9272 29.8021 19.4051 29.6068 19.7956 29.2163C20.1862 28.8257 20.3815 28.3498 20.3815 27.7885C20.3815 27.2273 20.1862 26.7514 19.7956 26.3608C19.4051 25.9702 18.9272 25.775 18.3619 25.775C17.7967 25.775 17.3188 25.9702 16.9282 26.3608C16.5377 26.7514 16.3424 27.2273 16.3424 27.7885C16.3424 28.3498 16.5377 28.8257 16.9282 29.2163C17.3188 29.6068 17.7967 29.8021 18.3619 29.8021ZM16.8924 22.9185H19.6096C19.6096 22.086 19.7549 21.3846 20.0455 20.8142C20.3362 20.2438 20.9156 19.5286 21.7837 18.6685C22.6917 17.7525 23.331 16.9195 23.7016 16.1695C24.0723 15.4195 24.2576 14.5983 24.2576 13.7058C24.2576 12.1709 23.7473 10.9094 22.7266 9.92125C21.706 8.93312 20.3217 8.43905 18.5739 8.43905C17.142 8.43905 15.8608 8.82383 14.7302 9.5934C13.5997 10.3629 12.7624 11.4046 12.2185 12.7185L14.7276 13.7521C15.0983 12.8775 15.6047 12.2278 16.2468 11.8032C16.8889 11.3786 17.6067 11.1663 18.4 11.1663C19.3641 11.1663 20.1206 11.3957 20.6693 11.8545C21.218 12.3133 21.4924 12.9311 21.4924 13.7081C21.4924 14.3179 21.3091 14.9458 20.9424 15.5918C20.5757 16.2378 19.9377 17.0322 19.0282 17.975C18.1203 18.9163 17.5373 19.6827 17.2793 20.2743C17.0214 20.8659 16.8924 21.7473 16.8924 22.9185Z" fill="#1C1B1F"/>
</svg>
