<svg width="42" height="38" viewBox="0 0 42 38" fill="none" xmlns="http://www.w3.org/2000/svg">
<path d="M18.7935 33.2988H4.10761C3.18804 33.2988 2.39039 32.9609 1.71466 32.2852C1.03896 31.6095 0.701111 30.8118 0.701111 29.8923V4.10746C0.701111 3.1879 1.03896 2.38827 1.71466 1.70857C2.39039 1.02883 3.18804 0.688965 4.10761 0.688965H37.8924C38.812 0.688965 39.6116 1.02883 40.2913 1.70857C40.971 2.38827 41.3109 3.1879 41.3109 4.10746V15.926H39.2924H39.3881L27.0315 28.2705L20.8011 22.0162L14.15 28.6553L18.7935 33.2988ZM27.0315 37.2988L18.4 28.6554L20.8011 26.2662L27.0315 32.5205L38.9239 20.6281L41.275 23.0553L27.0315 37.2988ZM4.10761 8.97596V15.926H37.8924V8.97596H4.10761Z" fill="#1C1B1F"/>
</svg>
