<svg width="46" height="35" viewBox="0 0 46 35" fill="none" xmlns="http://www.w3.org/2000/svg">
<path d="M6.30876 34.8349C4.72916 34.8349 3.38969 34.2872 2.29036 33.1918C1.19102 32.0965 0.641357 30.759 0.641357 29.1794C0.641357 28.4 0.800407 27.658 1.11851 26.9536C1.43664 26.2491 1.88447 25.6302 2.46201 25.0968V14.5696H6.66526V2.65332H22.2088L31.6762 24.824C31.9175 25.3559 32.1211 25.9006 32.287 26.4581C32.4529 27.0157 32.5359 27.5895 32.5359 28.1794C32.5359 30.0219 31.8854 31.5918 30.5845 32.889C29.2836 34.1863 27.7156 34.8349 25.8805 34.8349C24.5735 34.8349 23.3701 34.4702 22.2704 33.7408C21.1706 33.0115 20.3421 32.0428 19.7849 30.8349H11.7194C11.3522 32.0175 10.669 32.9798 9.66986 33.7218C8.67076 34.4639 7.55039 34.8349 6.30876 34.8349ZM36.0359 32.8349V0.65332H39.3588V29.512H45.3588V32.8349H36.0359ZM6.29611 31.5838C6.98061 31.5838 7.55457 31.3539 8.01801 30.8941C8.48141 30.4343 8.71311 29.8645 8.71311 29.1848C8.71311 28.5051 8.48332 27.9316 8.02376 27.4642C7.56422 26.9968 6.99477 26.7631 6.31541 26.7631C5.62691 26.7631 5.05096 26.9938 4.58756 27.4552C4.12416 27.9166 3.89246 28.4884 3.89246 29.1704C3.89246 29.8525 4.12192 30.4253 4.58086 30.8887C5.03982 31.3521 5.61157 31.5838 6.29611 31.5838ZM25.8701 31.5838C26.8161 31.5838 27.6218 31.2556 28.287 30.5991C28.9522 29.9427 29.2849 29.1376 29.2849 28.1839C29.2849 27.2302 28.9543 26.4216 28.2932 25.7582C27.6321 25.0948 26.8294 24.7631 25.885 24.7631C24.9313 24.7631 24.1227 25.0933 23.4593 25.7538C22.7959 26.4142 22.4642 27.2212 22.4642 28.175C22.4642 29.1287 22.7953 29.9352 23.4576 30.5946C24.1198 31.2541 24.924 31.5838 25.8701 31.5838ZM16.0186 21.0196H26.4381L20.0435 5.97617H9.98811V14.6892L16.0186 21.0196Z" fill="#1C1B1F"/>
</svg>
