<svg width="38" height="38" viewBox="0 0 38 38" fill="none" xmlns="http://www.w3.org/2000/svg">
<path d="M14.9446 31.2273V27.9882H18.0261L24.1598 21.0621L18.027 14.048H14.2544L10.7163 32.2762C10.4257 33.8639 9.81225 35.0959 8.87585 35.9724C7.93945 36.8488 6.75402 37.2871 5.31955 37.2871C3.89708 37.2871 2.70758 36.8686 1.75105 36.0317C0.794549 35.1947 0.316299 34.1574 0.316299 32.9197C0.316299 31.9906 0.57945 31.2384 1.10575 30.6631C1.63205 30.0878 2.31578 29.8001 3.15695 29.8001C3.89868 29.8001 4.50652 30.0161 4.98045 30.448C5.45435 30.8798 5.6913 31.449 5.6913 32.1556C5.6913 32.5143 5.61828 32.846 5.47225 33.1507C5.32625 33.4554 5.1239 33.7037 4.8652 33.8958C4.99057 33.9624 5.12825 34.0124 5.27825 34.0458C5.42825 34.0791 5.59057 34.0958 5.7652 34.0958C6.19057 34.1037 6.55325 33.9034 6.85325 33.4947C7.15325 33.086 7.36593 32.5563 7.4913 31.9056L10.9652 14.048H4.52175V10.8208H11.5631L12.5891 5.78381C12.921 4.16424 13.5657 2.91026 14.5233 2.02186C15.4808 1.13343 16.6735 0.689209 18.1013 0.689209C19.5214 0.689209 20.6951 1.10316 21.6223 1.93106C22.5495 2.75896 23.0131 3.79284 23.0131 5.03271C23.0131 5.97811 22.7491 6.73838 22.2212 7.31351C21.6933 7.88864 21.0076 8.17621 20.164 8.17621C19.4532 8.17621 18.8546 7.97059 18.368 7.55936C17.8814 7.14813 17.6381 6.60193 17.6381 5.92076C17.6381 5.60689 17.7027 5.29384 17.8321 4.98161C17.9614 4.66938 18.1221 4.41903 18.3142 4.23056C18.2475 4.16389 18.1475 4.10556 18.0142 4.05556C17.8808 4.00556 17.7475 3.98056 17.6142 3.98056C17.1888 3.97259 16.8158 4.16761 16.4951 4.56561C16.1745 4.96361 15.9515 5.46931 15.8261 6.08271L14.9022 10.8208H24.6511V14.048H22.337L26.4272 18.7403L30.2674 14.048H27.9033V10.8208H37.5979V14.048H34.5783L28.4826 21.0621L34.5903 27.9882H37.5979V31.2273H27.9033V27.9882H30.2674L26.3272 23.4697L22.275 27.9882H24.6511V31.2273H14.9446Z" fill="#1C1B1F"/>
</svg>
