<svg width="23" height="20" viewBox="0 0 23 20" fill="none" xmlns="http://www.w3.org/2000/svg">
<path d="M17.6234 15.1375V12.1375H14.6234V9.86248H17.6234V6.86248H19.8984V9.86248H22.8984V12.1375H19.8984V15.1375H17.6234ZM10.994 19.275L8.09405 16.6701C6.76253 15.4672 5.63372 14.4059 4.70762 13.4861C3.78154 12.5664 3.02737 11.7116 2.44512 10.9217C1.86287 10.1319 1.44159 9.37727 1.18127 8.65796C0.920938 7.93866 0.790771 7.18509 0.790771 6.39726C0.790771 4.76901 1.33571 3.41357 2.42557 2.33096C3.51542 1.24834 4.87158 0.707031 6.49405 0.707031C7.35645 0.707031 8.17739 0.879223 8.95687 1.22361C9.73635 1.56799 10.4154 2.06356 10.994 2.71031C11.5766 2.06356 12.257 1.56799 13.0352 1.22361C13.8135 0.879223 14.6331 0.707031 15.494 0.707031C16.9864 0.707031 18.2417 1.16709 19.2598 2.08721C20.2779 3.00732 20.8897 4.10814 21.0951 5.38966C20.7354 5.20524 20.3626 5.06493 19.9769 4.96873C19.5912 4.87253 19.2069 4.82244 18.8239 4.81846C17.1058 4.81846 15.6429 5.41873 14.4351 6.61928C13.2273 7.81981 12.6234 9.28005 12.6234 11C12.6234 11.9424 12.8273 12.829 13.2351 13.6598C13.6429 14.4906 14.2132 15.1869 14.9462 15.7489C14.6375 16.0283 14.2559 16.3678 13.8014 16.7677C13.3469 17.1675 12.9402 17.5281 12.5815 17.8494L10.994 19.275Z" fill="#1C1B1F"/>
</svg>
