<svg width="42" height="42" viewBox="0 0 42 42" fill="none" xmlns="http://www.w3.org/2000/svg">
<path d="M21.2002 32.65C21.7335 32.65 22.1919 32.4583 22.5752 32.075C22.9585 31.6917 23.1502 31.2167 23.1502 30.65C23.1502 30.0833 22.9585 29.6083 22.5752 29.225C22.1919 28.8417 21.7169 28.65 21.1502 28.65C20.6169 28.65 20.1585 28.8417 19.7752 29.225C19.3919 29.6083 19.2002 30.0833 19.2002 30.65C19.2002 31.2167 19.3919 31.6917 19.7752 32.075C20.1585 32.4583 20.6335 32.65 21.2002 32.65ZM19.3502 25.35H22.4502C22.4502 24.4833 22.5585 23.6917 22.7752 22.975C22.9919 22.2583 23.6502 21.45 24.7502 20.55C25.7835 19.7167 26.5169 18.875 26.9502 18.025C27.3835 17.175 27.6002 16.25 27.6002 15.25C27.6002 13.45 27.0335 12.0167 25.9002 10.95C24.7669 9.88333 23.2335 9.35 21.3002 9.35C19.6669 9.35 18.2085 9.76666 16.9252 10.6C15.6419 11.4333 14.7169 12.5833 14.1502 14.05L16.9502 15.15C17.3502 14.2167 17.9085 13.4917 18.6252 12.975C19.3419 12.4583 20.1835 12.2 21.1502 12.2C22.1835 12.2 23.0335 12.4917 23.7002 13.075C24.3669 13.6583 24.7002 14.4167 24.7002 15.35C24.7002 16.05 24.4919 16.725 24.0752 17.375C23.6585 18.025 23.0502 18.6667 22.2502 19.3C21.2835 20.1667 20.5585 21.0333 20.0752 21.9C19.5919 22.7667 19.3502 23.9167 19.3502 25.35ZM21.0002 41.3C18.2335 41.3 15.6085 40.7667 13.1252 39.7C10.6419 38.6333 8.48353 37.1833 6.6502 35.35C4.81686 33.5167 3.36686 31.3667 2.3002 28.9C1.23353 26.4333 0.700195 23.8 0.700195 21C0.700195 18.2 1.23353 15.5583 2.3002 13.075C3.36686 10.5917 4.81686 8.44166 6.6502 6.625C8.48353 4.80833 10.6335 3.36666 13.1002 2.3C15.5669 1.23333 18.2002 0.699997 21.0002 0.699997C23.8002 0.699997 26.4419 1.23333 28.9252 2.3C31.4085 3.36666 33.5585 4.80833 35.3752 6.625C37.1919 8.44166 38.6335 10.5833 39.7002 13.05C40.7669 15.5167 41.3002 18.1667 41.3002 21C41.3002 23.8 40.7669 26.4333 39.7002 28.9C38.6335 31.3667 37.1919 33.5167 35.3752 35.35C33.5585 37.1833 31.4169 38.6333 28.9502 39.7C26.4835 40.7667 23.8335 41.3 21.0002 41.3Z" fill="#1C1B1F"/>
</svg>
