<svg width="41" height="34" viewBox="0 0 41 34" fill="none" xmlns="http://www.w3.org/2000/svg">
<path d="M14.05 33.45C13.1167 33.45 12.3167 33.1083 11.65 32.425C10.9833 31.7417 10.65 30.9333 10.65 30V24.9H16.95V18.55C15.7167 18.65 14.4667 18.4667 13.2 18C11.9333 17.5333 10.8167 16.8333 9.85 15.9V13.05H7.4L0.75 6.39999C2.01667 5.26665 3.48333 4.33332 5.15 3.59999C6.81667 2.86665 8.51667 2.49999 10.25 2.49999C11.2167 2.49999 12.325 2.65832 13.575 2.97499C14.825 3.29165 15.95 3.78332 16.95 4.44999V0.549988H40.3V27.85C40.3 29.4167 39.7583 30.7417 38.675 31.825C37.5917 32.9083 36.2833 33.45 34.75 33.45H14.05ZM20.35 24.9H32.6V27.85C32.6 28.5167 32.8 29.0417 33.2 29.425C33.6 29.8083 34.1167 30 34.75 30C35.3833 30 35.9 29.8083 36.3 29.425C36.7 29.0417 36.9 28.5167 36.9 27.85V3.99999H20.35V6.84999L32.1 18.6V20.85H29.85L23.7 14.7L22.9 15.65C22.5 16.1167 22.1 16.475 21.7 16.725C21.3 16.975 20.85 17.2167 20.35 17.45V24.9ZM8.8 9.89999H13V14.35C13.5333 14.7167 14.075 14.9917 14.625 15.175C15.175 15.3583 15.7167 15.45 16.25 15.45C17.0833 15.45 17.925 15.225 18.775 14.775C19.625 14.325 20.2333 13.8833 20.6 13.45L21.45 12.45L18.05 9.04999C16.9833 7.98332 15.7917 7.14999 14.475 6.54999C13.1583 5.94999 11.75 5.64999 10.25 5.64999C9.38333 5.64999 8.59167 5.74999 7.875 5.94999C7.15833 6.14999 6.43333 6.43332 5.7 6.79999L8.8 9.89999Z" fill="#1C1B1F"/>
</svg>
