<svg width="42" height="42" viewBox="0 0 42 42" fill="none" xmlns="http://www.w3.org/2000/svg">
<path d="M19.5 31.15H22.7999V19H19.5V31.15ZM21 15.5C21.5333 15.5 21.975 15.325 22.325 14.975C22.675 14.625 22.85 14.2 22.85 13.7C22.85 13.1667 22.675 12.7167 22.325 12.35C21.975 11.9833 21.5333 11.8 21 11.8C20.4666 11.8 20.025 11.9833 19.6749 12.35C19.3249 12.7167 19.15 13.1667 19.15 13.7C19.15 14.2 19.3249 14.625 19.6749 14.975C20.025 15.325 20.4666 15.5 21 15.5ZM21 41.3C18.2 41.3 15.5666 40.7667 13.1 39.7C10.6333 38.6333 8.48328 37.1833 6.64995 35.35C4.81662 33.5167 3.36662 31.3667 2.29995 28.9C1.23328 26.4333 0.699951 23.8 0.699951 21C0.699951 18.1667 1.23328 15.5167 2.29995 13.05C3.36662 10.5833 4.81662 8.44168 6.64995 6.62501C8.48328 4.80835 10.6333 3.36668 13.1 2.30001C15.5666 1.23335 18.2 0.700012 21 0.700012C23.8333 0.700012 26.4833 1.23335 28.95 2.30001C31.4166 3.36668 33.5583 4.80835 35.375 6.62501C37.1916 8.44168 38.6333 10.5833 39.7 13.05C40.7666 15.5167 41.2999 18.1667 41.2999 21C41.2999 23.8 40.7666 26.4333 39.7 28.9C38.6333 31.3667 37.1916 33.5167 35.375 35.35C33.5583 37.1833 31.4166 38.6333 28.95 39.7C26.4833 40.7667 23.8333 41.3 21 41.3Z" fill="#1C1B1F"/>
</svg>
