<svg width="42" height="26" viewBox="0 0 42 26" fill="none" xmlns="http://www.w3.org/2000/svg">
<path d="M0.700195 25.2999V19.15C0.700195 16.8833 1.5002 14.95 3.1002 13.35C4.7002 11.75 6.63353 10.95 8.9002 10.95H27.6502V8.49995C27.6502 7.83328 27.4169 7.27495 26.9502 6.82495C26.4835 6.37495 25.9169 6.14995 25.2502 6.14995H16.4502C15.7835 6.14995 15.2252 6.37495 14.7752 6.82495C14.3252 7.27495 14.1002 7.83328 14.1002 8.49995H10.6502C10.6502 6.89995 11.2085 5.53328 12.3252 4.39995C13.4419 3.26662 14.8002 2.69995 16.4002 2.69995H25.2502C26.8502 2.69995 28.2169 3.26662 29.3502 4.39995C30.4835 5.53328 31.0502 6.89995 31.0502 8.49995V17.2C31.8169 17.2 32.5085 16.975 33.1252 16.525C33.7419 16.075 34.0502 15.4666 34.0502 14.7V6.64995C34.0502 4.98328 34.6252 3.57495 35.7752 2.42495C36.9252 1.27495 38.3169 0.699951 39.9502 0.699951H41.3002V4.14995H39.9502C39.2502 4.14995 38.6585 4.38329 38.1752 4.84995C37.6919 5.31662 37.4502 5.91662 37.4502 6.64995V14.7C37.4502 16.4333 36.8169 17.8583 35.5502 18.975C34.2835 20.0916 32.7835 20.65 31.0502 20.65V25.2999H0.700195Z" fill="#1C1B1F"/>
</svg>
