<svg width="46" height="34" viewBox="0 0 46 34" fill="none" xmlns="http://www.w3.org/2000/svg">
<path d="M10.2776 33.2251C8.62443 33.2251 7.21088 32.6555 6.03695 31.5162C4.86305 30.377 4.26812 28.9799 4.25215 27.3251H0.724998V4.1316C0.724998 3.21163 1.06277 2.4139 1.7383 1.7384C2.41377 1.06286 3.2115 0.725098 4.1315 0.725098H33.0815V8.9316H38.2478L45.275 18.2991V27.3251H41.5815C41.5576 28.9799 40.9606 30.377 39.7906 31.5162C38.6207 32.6555 37.2091 33.2251 35.5559 33.2251C33.9027 33.2251 32.4891 32.6555 31.3152 31.5162C30.1413 30.377 29.5464 28.9799 29.5304 27.3251H16.2913C16.2674 28.9664 15.6724 30.3601 14.5064 31.5061C13.3404 32.6521 11.9308 33.2251 10.2776 33.2251ZM10.2717 30.0816C11.0717 30.0816 11.7551 29.7983 12.3217 29.2316C12.8884 28.6649 13.1717 27.9816 13.1717 27.1816C13.1717 26.3816 12.8884 25.6983 12.3217 25.1316C11.7551 24.5649 11.0717 24.2816 10.2717 24.2816C9.47175 24.2816 8.78841 24.5649 8.22175 25.1316C7.65508 25.6983 7.37175 26.3816 7.37175 27.1816C7.37175 27.9816 7.65508 28.6649 8.22175 29.2316C8.78841 29.7983 9.47175 30.0816 10.2717 30.0816ZM35.55 30.0816C36.35 30.0816 37.0333 29.7983 37.6 29.2316C38.1667 28.6649 38.45 27.9816 38.45 27.1816C38.45 26.3816 38.1667 25.6983 37.6 25.1316C37.0333 24.5649 36.35 24.2816 35.55 24.2816C34.75 24.2816 34.0667 24.5649 33.5 25.1316C32.9333 25.6983 32.65 26.3816 32.65 27.1816C32.65 27.9816 32.9333 28.6649 33.5 29.2316C34.0667 29.7983 34.75 30.0816 35.55 30.0816ZM33.0815 19.7501H42.0945L36.5445 12.3501H33.0815V19.7501Z" fill="#1C1B1F"/>
</svg>
