<svg width="38" height="45" viewBox="0 0 38 45" fill="none" xmlns="http://www.w3.org/2000/svg">
<path d="M19 44.4C16.3667 42.0667 13.4833 40.275 10.35 39.025C7.21667 37.775 4.01667 37.15 0.75 37.15V15.55C3.95 15.55 7.10833 16.25 10.225 17.65C13.3417 19.05 16.2667 21.0167 19 23.55C21.7333 21.0167 24.6583 19.05 27.775 17.65C30.8917 16.25 34.05 15.55 37.25 15.55V37.15C33.9833 37.15 30.7833 37.775 27.65 39.025C24.5167 40.275 21.6333 42.0667 19 44.4ZM19.15 16.4C16.95 16.4 15.0917 15.6417 13.575 14.125C12.0583 12.6083 11.3 10.75 11.3 8.55001C11.3 6.35001 12.0583 4.49168 13.575 2.97501C15.0917 1.45835 16.95 0.700012 19.15 0.700012C21.35 0.700012 23.2083 1.45835 24.725 2.97501C26.2417 4.49168 27 6.35001 27 8.55001C27 10.75 26.2417 12.6083 24.725 14.125C23.2083 15.6417 21.35 16.4 19.15 16.4Z" fill="#1C1B1F"/>
</svg>
