<svg width="22" height="16" viewBox="0 0 22 16" fill="none" xmlns="http://www.w3.org/2000/svg">
<path d="M4.84389 15.5577C4.06336 15.5577 3.40066 15.2847 2.85579 14.7388C2.31092 14.1928 2.03849 13.5299 2.03849 12.75H0.346191V2.30773C0.346191 1.8026 0.521191 1.37503 0.871191 1.02503C1.22119 0.675031 1.64875 0.500031 2.15387 0.500031H15.7692V4.30773H18.423L21.6538 8.63465V12.75H19.8462C19.8462 13.5299 19.573 14.1928 19.0266 14.7388C18.4802 15.2847 17.8167 15.5577 17.0362 15.5577C16.2557 15.5577 15.593 15.2847 15.0481 14.7388C14.5032 14.1928 14.2308 13.5299 14.2308 12.75H7.65384C7.65384 13.532 7.38065 14.1955 6.83427 14.7404C6.2879 15.2852 5.62444 15.5577 4.84389 15.5577ZM4.84617 14.0577C5.21283 14.0577 5.52245 13.9314 5.77502 13.6789C6.02758 13.4263 6.15387 13.1167 6.15387 12.75C6.15387 12.3833 6.02758 12.0737 5.77502 11.8211C5.52245 11.5686 5.21283 11.4423 4.84617 11.4423C4.47948 11.4423 4.16986 11.5686 3.91729 11.8211C3.66472 12.0737 3.53844 12.3833 3.53844 12.75C3.53844 13.1167 3.66472 13.4263 3.91729 13.6789C4.16986 13.9314 4.47948 14.0577 4.84617 14.0577ZM17.0385 14.0577C17.4052 14.0577 17.7148 13.9314 17.9673 13.6789C18.2199 13.4263 18.3462 13.1167 18.3462 12.75C18.3462 12.3833 18.2199 12.0737 17.9673 11.8211C17.7148 11.5686 17.4052 11.4423 17.0385 11.4423C16.6718 11.4423 16.3622 11.5686 16.1096 11.8211C15.857 12.0737 15.7308 12.3833 15.7308 12.75C15.7308 13.1167 15.857 13.4263 16.1096 13.6789C16.3622 13.9314 16.6718 14.0577 17.0385 14.0577ZM15.7692 9.25003H20.25L17.6538 5.80768H15.7692V9.25003Z" fill="#1C1B1F"/>
</svg>
