<svg width="42" height="42" viewBox="0 0 42 42" fill="none" xmlns="http://www.w3.org/2000/svg">
<path d="M2.55436 41.2988C2.03189 41.2988 1.59239 41.1205 1.23586 40.764C0.879361 40.4075 0.701111 39.968 0.701111 39.4455V24.3542C0.701111 23.8317 0.879361 23.3903 1.23586 23.0298C1.59239 22.6692 2.03189 22.489 2.55436 22.489H9.00111V12.4999C9.00111 9.18683 10.1707 6.3901 12.5098 4.10966C14.8489 1.8292 17.679 0.688965 21 0.688965H29.65C32.8964 0.688965 35.6514 1.84586 37.9152 4.15966C40.179 6.47343 41.3109 9.2535 41.3109 12.4999V41.2988H37.8924V35.5488H28.6109V39.4455C28.6109 40.0093 28.389 40.4591 27.9451 40.795C27.5013 41.1309 26.9848 41.2988 26.3957 41.2988H2.55436ZM14.65 34.6977L25.1924 28.6575V25.9075L14.65 31.9477L4.10761 25.9075V28.6575L14.65 34.6977ZM28.6109 32.1423H37.8924V12.4999C37.8924 10.1904 37.096 8.21435 35.5033 6.57162C33.9105 4.92885 31.9594 4.10746 29.65 4.10746H21C18.6319 4.10746 16.6078 4.91417 14.9277 6.52757C13.2476 8.141 12.4076 10.1318 12.4076 12.4999V22.489H26.3957C26.9848 22.489 27.5013 22.6589 27.9451 22.9988C28.389 23.3386 28.6109 23.7904 28.6109 24.3542V32.1423ZM17 16.226V13.226H33.3V16.226H17Z" fill="#1C1B1F"/>
</svg>
