<svg width="44" height="38" viewBox="0 0 44 38" fill="none" xmlns="http://www.w3.org/2000/svg">
<path d="M28.5213 37.2L20.3213 29L22.7213 26.5999L28.5213 32.4L40.6213 20.2999L43.0213 22.7L28.5213 37.2ZM3.97129 32.7C3.03796 32.7 2.23796 32.3666 1.57129 31.7C0.904622 31.0333 0.571289 30.2333 0.571289 29.2999V4.09995C0.571289 3.16662 0.904622 2.36662 1.57129 1.69995C2.23796 1.03328 3.03796 0.699951 3.97129 0.699951H37.6213C38.5546 0.699951 39.3546 1.03328 40.0213 1.69995C40.688 2.36662 41.0213 3.16662 41.0213 4.09995V15.6L28.4213 28.2L22.7213 22.5L16.1213 29.0999L19.7713 32.7H3.97129ZM20.7713 17.7999L37.6213 7.19995L37.3713 4.09995L20.7713 14.5L4.17129 4.09995L3.97129 7.19995L20.7713 17.7999Z" fill="#1C1B1F"/>
</svg>
