<svg width="10" height="20" viewBox="0 0 10 20" fill="none" xmlns="http://www.w3.org/2000/svg">
<path d="M0.192383 0.288483H9.80773V7.75386C9.80773 8.12436 9.71799 8.46122 9.53851 8.76443C9.35903 9.06763 9.11287 9.31411 8.80003 9.50386L5.34621 11.5654L6.06543 13.9039H9.40386L6.66928 15.8346L7.73466 19.1923L5.00006 17.1115L2.26546 19.1923L3.33083 15.8346L0.596258 13.9039H3.93468L4.65391 11.5654L1.18083 9.52308C0.868016 9.33975 0.625075 9.09328 0.452008 8.78366C0.278925 8.47404 0.192383 8.13077 0.192383 7.75386V0.288483ZM4.25008 1.78846V9.56928L5.00006 10.0154L5.75003 9.56928V1.78846H4.25008Z" fill="#1C1B1F"/>
</svg>
