<svg width="20" height="16" viewBox="0 0 20 16" fill="none" xmlns="http://www.w3.org/2000/svg">
<path d="M8.68268 12.7788C9.31216 12.7788 9.84613 12.5596 10.2846 12.1212C10.7231 11.6827 10.9423 11.1487 10.9423 10.5192V5.00001H13.75V3.23078H10.0577V8.73078C9.86664 8.5872 9.65574 8.47278 9.42498 8.38753C9.19421 8.30226 8.94678 8.25963 8.68268 8.25963C8.05319 8.25963 7.51923 8.47886 7.08078 8.91733C6.64231 9.35578 6.42308 9.88975 6.42308 10.5192C6.42308 11.1487 6.64231 11.6827 7.08078 12.1212C7.51923 12.5596 8.05319 12.7788 8.68268 12.7788ZM2.3077 15.5C1.80257 15.5 1.375 15.325 1.025 14.975C0.675 14.625 0.5 14.1974 0.5 13.6923V2.30773C0.5 1.8026 0.675 1.37503 1.025 1.02503C1.375 0.675031 1.80257 0.500031 2.3077 0.500031H17.6923C18.1974 0.500031 18.625 0.675031 18.975 1.02503C19.325 1.37503 19.5 1.8026 19.5 2.30773V13.6923C19.5 14.1974 19.325 14.625 18.975 14.975C18.625 15.325 18.1974 15.5 17.6923 15.5H2.3077Z" fill="#1C1B1F"/>
</svg>
