<svg width="22" height="16" viewBox="0 0 22 16" fill="none" xmlns="http://www.w3.org/2000/svg">
<path d="M2.65393 15.3076C2.15681 15.3076 1.73125 15.1306 1.37725 14.7766C1.02325 14.4226 0.846252 13.9971 0.846252 13.5V3.59619H2.3462V13.5C2.3462 13.5769 2.37826 13.6474 2.44238 13.7115C2.50648 13.7756 2.57699 13.8077 2.65393 13.8077H18.1731V15.3076H2.65393ZM6.15388 11.8077C5.65678 11.8077 5.23122 11.6307 4.8772 11.2767C4.5232 10.9227 4.3462 10.4971 4.3462 9.99999V2.42309C4.3462 1.92599 4.5232 1.50043 4.8772 1.14642C5.23122 0.792417 5.65678 0.615417 6.15388 0.615417H19.3461C19.8432 0.615417 20.2688 0.792417 20.6228 1.14642C20.9768 1.50043 21.1538 1.92599 21.1538 2.42309V9.99999C21.1538 10.4971 20.9768 10.9227 20.6228 11.2767C20.2688 11.6307 19.8432 11.8077 19.3461 11.8077H6.15388ZM7.65385 10.3077C7.65385 9.809 7.47685 9.38304 7.12285 9.02984C6.76884 8.67663 6.34328 8.50002 5.84618 8.50002V9.99999C5.84618 10.0833 5.87663 10.1554 5.93753 10.2163C5.99843 10.2773 6.07054 10.3077 6.15388 10.3077H7.65385ZM17.8462 10.3077H19.3461C19.4295 10.3077 19.5016 10.2773 19.5625 10.2163C19.6234 10.1554 19.6539 10.0833 19.6539 9.99999V8.50002C19.1551 8.50002 18.7292 8.67703 18.376 9.03104C18.0228 9.38504 17.8462 9.8106 17.8462 10.3077ZM12.75 8.71152C13.4487 8.71152 14.0401 8.46953 14.524 7.98557C15.008 7.5016 15.25 6.91026 15.25 6.21154C15.25 5.51284 15.008 4.92151 14.524 4.43754C14.0401 3.95358 13.4487 3.71159 12.75 3.71159C12.0513 3.71159 11.46 3.95358 10.976 4.43754C10.492 4.92151 10.2501 5.51284 10.2501 6.21154C10.2501 6.91026 10.492 7.5016 10.976 7.98557C11.46 8.46953 12.0513 8.71152 12.75 8.71152ZM5.84618 3.92307C6.34489 3.92307 6.77085 3.74607 7.12405 3.39207C7.47725 3.03805 7.65385 2.61249 7.65385 2.11539H6.15388C6.07054 2.11539 5.99843 2.14584 5.93753 2.20674C5.87663 2.26764 5.84618 2.33976 5.84618 2.42309V3.92307ZM19.6539 3.92307V2.42309C19.6539 2.33976 19.6234 2.26764 19.5625 2.20674C19.5016 2.14584 19.4295 2.11539 19.3461 2.11539H17.8462C17.8462 2.61411 18.0232 3.04007 18.3772 3.39327C18.7312 3.74647 19.1567 3.92307 19.6539 3.92307Z" fill="#1C1B1F"/>
</svg>
