<svg width="40" height="40" viewBox="0 0 40 40" fill="none" xmlns="http://www.w3.org/2000/svg">
<path d="M31.5576 16.3129L29.3663 13.9216L33.1945 10.0814H21.3478V6.81837H33.1945L29.4163 3.02812L31.7576 0.736816L39.4706 8.44987L31.5576 16.3129ZM34.762 39.2749C30.6554 39.2749 26.5759 38.2669 22.5233 36.251C18.4708 34.235 14.8286 31.6131 11.5967 28.3852C8.36485 25.1573 5.74093 21.5151 3.725 17.4586C1.70907 13.402 0.701099 9.3245 0.701099 5.22596C0.701099 4.5129 0.945666 3.9118 1.4348 3.42267C1.92393 2.93353 2.52502 2.68896 3.23805 2.68896H10.238C10.8402 2.68896 11.3522 2.87321 11.7739 3.24171C12.1957 3.61018 12.4725 4.12087 12.6044 4.77377L13.9543 10.8825C14.0449 11.4528 14.0346 11.9615 13.9234 12.4086C13.8122 12.8557 13.5913 13.2365 13.2609 13.551L8.2011 18.5292C10.0199 21.5176 12.0438 24.116 14.2728 26.3243C16.5018 28.5327 19.0192 30.4049 21.825 31.9412L26.6348 27.0053C27.0319 26.5829 27.477 26.2886 27.9701 26.1227C28.4632 25.9567 28.9743 25.9357 29.5032 26.0596L35.2021 27.3357C35.8297 27.4756 36.3361 27.7774 36.7212 28.2412C37.1063 28.7049 37.2989 29.2633 37.2989 29.9162V36.726C37.2989 37.447 37.0543 38.052 36.5652 38.5412C36.0761 39.0303 35.475 39.2749 34.762 39.2749Z" fill="#1C1B1F"/>
</svg>
