<svg width="42" height="38" viewBox="0 0 42 38" fill="none" xmlns="http://www.w3.org/2000/svg">
<path d="M33.2002 8.80001H8.8002V0.700012H33.2002V8.80001ZM33.7502 18.75C34.1835 18.75 34.5669 18.5833 34.9002 18.25C35.2335 17.9167 35.4002 17.5333 35.4002 17.1C35.4002 16.6667 35.2335 16.2833 34.9002 15.95C34.5669 15.6167 34.1835 15.45 33.7502 15.45C33.3169 15.45 32.9335 15.6167 32.6002 15.95C32.2669 16.2833 32.1002 16.6667 32.1002 17.1C32.1002 17.5333 32.2669 17.9167 32.6002 18.25C32.9335 18.5833 33.3169 18.75 33.7502 18.75ZM29.8002 34.1V25.2H12.2002V34.1H29.8002ZM33.2002 37.45H8.8002V28.45H0.700195V15.9C0.700195 14.3333 1.23353 13.0083 2.3002 11.925C3.36686 10.8417 4.7002 10.3 6.3002 10.3H35.7002C37.3002 10.3 38.6335 10.8417 39.7002 11.925C40.7669 13.0083 41.3002 14.3333 41.3002 15.9V28.45H33.2002V37.45Z" fill="#1C1B1F"/>
</svg>
