<svg width="42" height="40" viewBox="0 0 42 40" fill="none" xmlns="http://www.w3.org/2000/svg">
<path d="M4.10761 31.1739V35.8924H37.8924V31.1739H4.10761ZM4.10761 8.68912H9.97501C9.81631 8.38912 9.68496 8.01542 9.58096 7.56802C9.47699 7.12058 9.42501 6.71095 9.42501 6.33912C9.42501 4.73315 9.98896 3.36808 11.1169 2.24392C12.2448 1.11972 13.5947 0.557617 15.1668 0.557617C16.2037 0.557617 17.1628 0.817951 18.0442 1.33862C18.9256 1.85925 19.6203 2.52355 20.1283 3.33152L21.025 4.71522L21.9218 3.33152C22.4631 2.49022 23.1569 1.81758 24.0034 1.31362C24.8499 0.809618 25.7575 0.557617 26.7262 0.557617C28.3643 0.557617 29.7486 1.11247 30.8792 2.22217C32.0097 3.33183 32.575 4.7115 32.575 6.36117C32.575 6.71313 32.5333 7.07445 32.45 7.44512C32.3667 7.81578 32.2417 8.23045 32.075 8.68912H37.8924C38.8156 8.68912 39.6162 9.02807 40.2941 9.70597C40.972 10.3838 41.3109 11.1844 41.3109 12.1076V35.8924C41.3109 36.8124 40.972 37.6101 40.2941 38.2857C39.6162 38.9612 38.8156 39.2989 37.8924 39.2989H4.10761C3.18764 39.2989 2.38989 38.9612 1.71436 38.2857C1.03886 37.6101 0.701111 36.8124 0.701111 35.8924V12.1076C0.701111 11.1844 1.03886 10.3838 1.71436 9.70597C2.38989 9.02807 3.18764 8.68912 4.10761 8.68912ZM4.10761 25.5489H37.8924V12.1076H25.8011L30.6337 18.8663L28.1022 20.75L21 10.8261L13.8979 20.75L11.3663 18.8663L16.2228 12.1076H4.10761V25.5489ZM15.2185 8.98912C15.9518 8.98912 16.5768 8.73079 17.0935 8.21412C17.6102 7.69745 17.8685 7.07245 17.8685 6.33912C17.8685 5.61379 17.6102 4.99078 17.0935 4.47012C16.5768 3.94945 15.9518 3.68912 15.2185 3.68912C14.4852 3.68912 13.8602 3.94945 13.3435 4.47012C12.8268 4.99078 12.5685 5.61379 12.5685 6.33912C12.5685 7.07245 12.8268 7.69745 13.3435 8.21412C13.8602 8.73079 14.4852 8.98912 15.2185 8.98912ZM26.7315 8.98912C27.4965 8.98912 28.1378 8.73079 28.6553 8.21412C29.1728 7.69745 29.4315 7.07245 29.4315 6.33912C29.4315 5.61379 29.1728 4.99078 28.6553 4.47012C28.1378 3.94945 27.4965 3.68912 26.7315 3.68912C26.0315 3.68912 25.4232 3.94945 24.9065 4.47012C24.3898 4.99078 24.1315 5.61379 24.1315 6.33912C24.1315 7.07245 24.3898 7.69745 24.9065 8.21412C25.4232 8.73079 26.0315 8.98912 26.7315 8.98912Z" fill="#1C1B1F"/>
</svg>
