<svg width="38" height="38" viewBox="0 0 38 38" fill="none" xmlns="http://www.w3.org/2000/svg">
<path d="M19.0001 29.1534C19.5096 29.1534 19.9505 28.9672 20.323 28.5948C20.6954 28.2223 20.8816 27.7814 20.8816 27.2719C20.8816 26.7653 20.6954 26.3231 20.323 25.9452C19.9505 25.5673 19.5096 25.3784 19.0001 25.3784C18.4906 25.3784 18.0496 25.5673 17.6772 25.9452C17.3048 26.3231 17.1186 26.7653 17.1186 27.2719C17.1186 27.7784 17.3048 28.2186 17.6772 28.5925C18.0496 28.9664 18.4906 29.1534 19.0001 29.1534ZM17.4283 22.0012H20.5718V8.43271H17.4283V22.0012ZM11.3805 37.299L0.701172 26.6218V11.3686L11.3784 0.689209H26.6316L37.311 11.3665V26.6197L26.6337 37.299H11.3805Z" fill="#1C1B1F"/>
</svg>
