<svg width="20" height="20" viewBox="0 0 20 20" fill="none" xmlns="http://www.w3.org/2000/svg">
<path d="M11.9038 19.0538C11.6161 19.341 11.2595 19.4846 10.8342 19.4846C10.4088 19.4846 10.0526 19.341 9.76538 19.0538L0.965375 10.2538C0.820508 10.109 0.706733 9.94221 0.62405 9.75358C0.54135 9.56496 0.5 9.36377 0.5 9.15001V2.00001C0.5 1.59104 0.647758 1.23881 0.943275 0.943305C1.23878 0.647789 1.59101 0.500031 1.99998 0.500031H9.14998C9.35638 0.500031 9.55408 0.540314 9.7431 0.620881C9.93213 0.70143 10.096 0.809864 10.2346 0.94618L19.0346 9.76158C19.3282 10.0552 19.4766 10.4138 19.4798 10.8375C19.483 11.2612 19.341 11.6166 19.0538 11.9038L11.9038 19.0538ZM4.49885 5.74998C4.84575 5.74998 5.14099 5.62856 5.38458 5.38573C5.62816 5.1429 5.74995 4.84803 5.74995 4.50113C5.74995 4.15423 5.62853 3.85899 5.3857 3.61541C5.14287 3.37182 4.848 3.25003 4.5011 3.25003C4.1542 3.25003 3.85896 3.37145 3.61538 3.61428C3.37179 3.85711 3.25 4.15198 3.25 4.49888C3.25 4.84578 3.37142 5.14102 3.61425 5.38461C3.85708 5.62819 4.15195 5.74998 4.49885 5.74998Z" fill="#1C1B1F"/>
</svg>
