<svg width="42" height="42" viewBox="0 0 42 42" fill="none" xmlns="http://www.w3.org/2000/svg">
<path d="M21.8976 16.0133L19.5943 13.71L23.3063 10.01H14.2541V6.7469H23.3063L19.6063 3.0469L21.8976 0.743652L29.5204 8.37845L21.8976 16.0133ZM12.3631 41.1318C11.3702 41.1317 10.5237 40.7782 9.82369 40.0711C9.12369 39.364 8.77369 38.514 8.77369 37.5211C8.77369 36.5281 9.12723 35.6817 9.83429 34.9817C10.5414 34.2817 11.3914 33.9317 12.3843 33.9317C13.3772 33.9317 14.2237 34.2852 14.9237 34.9923C15.6237 35.6994 15.9737 36.5494 15.9737 37.5423C15.9737 38.5352 15.6202 39.3817 14.9131 40.0817C14.206 40.7817 13.356 41.1318 12.3631 41.1318ZM32.5631 41.1318C31.5702 41.1317 30.7237 40.7782 30.0237 40.0711C29.3237 39.364 28.9737 38.514 28.9737 37.5211C28.9737 36.5281 29.3272 35.6817 30.0343 34.9817C30.7414 34.2817 31.5914 33.9317 32.5843 33.9317C33.5772 33.9317 34.4237 34.2852 35.1237 34.9923C35.8237 35.6994 36.1737 36.5494 36.1737 37.5423C36.1737 38.5352 35.8202 39.3817 35.1131 40.0817C34.406 40.7817 33.556 41.1318 32.5631 41.1318ZM0.842194 4.1317V0.868701H6.86934L15.2976 18.9252H29.647L37.59 5.0687H41.2628L33.115 20.2785C32.7324 20.9277 32.2407 21.452 31.6398 21.8513C31.039 22.2506 30.3736 22.4502 29.6438 22.4502H14.5791L11.8628 27.5187H36.3052V30.7817H12.0737C10.7625 30.7817 9.76708 30.2598 9.08754 29.216C8.40801 28.1721 8.36354 27.1096 8.95414 26.0285L12.1182 20.2002L4.78999 4.1317H0.842194Z" fill="#1C1B1F"/>
</svg>
