<svg width="44" height="38" viewBox="0 0 44 38" fill="none" xmlns="http://www.w3.org/2000/svg">
<path d="M24.2004 25.6999L16.3004 17.8499L33.5004 0.649902C33.8337 0.316569 34.2421 0.149902 34.7254 0.149902C35.2087 0.149902 35.6171 0.316569 35.9504 0.649902L41.3504 6.0999C41.7171 6.43324 41.9004 6.83324 41.9004 7.2999C41.9004 7.76657 41.7171 8.18324 41.3504 8.5499L24.2004 25.6999ZM21.1004 37.2499L24.4504 33.9499H43.1504V37.2499H21.1004ZM9.15039 37.2499C7.55039 37.2499 6.00872 36.9249 4.52539 36.2749C3.04206 35.6249 1.75039 34.7332 0.650391 33.5999L14.2504 20.0499L19.6504 25.3999C20.1504 25.8999 20.5337 26.4666 20.8004 27.0999C21.0671 27.7332 21.2004 28.3999 21.2004 29.0999C21.2004 29.7999 21.0671 30.4749 20.8004 31.1249C20.5337 31.7749 20.1504 32.3499 19.6504 32.8499L18.7004 33.7999C17.6004 34.8999 16.3254 35.7499 14.8754 36.3499C13.4254 36.9499 11.9171 37.2499 10.3504 37.2499H9.15039Z" fill="#1C1B1F"/>
</svg>
