<svg width="38" height="42" viewBox="0 0 38 42" fill="none" xmlns="http://www.w3.org/2000/svg">
<path d="M27.75 40.9499C25.0663 40.9499 22.7787 40.0041 20.8872 38.1126C18.9957 36.2211 18.05 33.9335 18.05 31.2499C18.05 28.5662 18.9957 26.2786 20.8872 24.3871C22.7787 22.4956 25.0663 21.5499 27.75 21.5499C30.4337 21.5499 32.7213 22.4956 34.6128 24.3871C36.5042 26.2786 37.45 28.5662 37.45 31.2499C37.45 33.9335 36.5042 36.2211 34.6128 38.1126C32.7213 40.0041 30.4337 40.9499 27.75 40.9499ZM27.8057 37.701C28.2258 37.701 28.5772 37.5585 28.8598 37.2736C29.1424 36.9887 29.2837 36.6334 29.2837 36.2078C29.2837 35.7822 29.1405 35.4301 28.854 35.1515C28.5676 34.8729 28.2144 34.7336 27.7943 34.7336C27.3742 34.7336 27.0228 34.8758 26.7402 35.1601C26.4576 35.4445 26.3163 35.7952 26.3163 36.2123C26.3163 36.6395 26.4595 36.9944 26.7459 37.2771C27.0324 37.5597 27.3857 37.701 27.8057 37.701ZM26.7282 33.3977H28.8717V32.8262C28.8717 32.4325 28.9801 32.0691 29.1967 31.7357C29.4134 31.4024 29.6672 31.0997 29.9581 30.8277C30.4714 30.4002 30.8913 29.97 31.2178 29.5372C31.5443 29.1043 31.7076 28.5392 31.7076 27.8418C31.7076 26.7623 31.3427 25.8909 30.6128 25.2275C29.883 24.5641 28.9418 24.2325 27.7894 24.2325C26.9059 24.2325 26.1022 24.4881 25.3783 24.9993C24.6544 25.5106 24.1551 26.2029 23.8804 27.0764L25.828 27.9238C25.8919 27.438 26.1136 27.0336 26.493 26.7105C26.8723 26.3875 27.3174 26.226 27.8281 26.226C28.3589 26.226 28.7829 26.3625 29.1002 26.6355C29.4175 26.9085 29.5761 27.31 29.5761 27.8401C29.5761 28.1988 29.4594 28.5218 29.2261 28.8091C28.9928 29.0964 28.7428 29.3677 28.4761 29.623C28.2174 29.8438 27.9531 30.0788 27.6831 30.3281C27.4132 30.5774 27.1949 30.8426 27.0282 31.1238C26.8949 31.3679 26.8116 31.5978 26.7782 31.8135C26.7449 32.0291 26.7282 32.2807 26.7282 32.5682V33.3977ZM20.4424 13.4075H29.8924L20.4424 4.10746V13.4075ZM4.1076 41.2988C3.16263 41.2988 2.35863 40.9673 1.6956 40.3043C1.0326 39.6412 0.701099 38.8372 0.701099 37.8923V4.10746C0.701099 3.15923 1.0326 2.35243 1.6956 1.68707C2.35863 1.02167 3.16263 0.688965 4.1076 0.688965H22.1815L33.3109 11.8184V19.8075C32.4297 19.401 31.5181 19.0897 30.5761 18.8738C29.6341 18.6578 28.692 18.5499 27.75 18.5499C26.373 18.5499 25.0614 18.7566 23.8151 19.17C22.5688 19.5834 21.4188 20.1575 20.3651 20.8923H8.95V24.0238H17.288C16.7373 24.8078 16.2882 25.6574 15.9407 26.5726C15.5933 27.4877 15.3377 28.4276 15.1739 29.3923H8.95V32.5238H15.1C15.2826 34.2702 15.7974 35.9006 16.6445 37.4151C17.4916 38.9296 18.6043 40.2241 19.9826 41.2988H4.1076Z" fill="#1C1B1F"/>
</svg>
