<svg width="42" height="33" viewBox="0 0 42 33" fill="none" xmlns="http://www.w3.org/2000/svg">
<path d="M33.6498 12.85L31.2498 10.35L35.8498 5.9L38.1998 8.25L33.6498 12.85ZM0.799805 33V29.55H41.1998V33H0.799805ZM19.2998 6.95V0.5H22.6998V6.95H19.2998ZM8.3498 12.8L3.8498 8.15L6.1998 5.8L10.8498 10.4L8.3498 12.8ZM6.7998 25.2C6.7998 21.2 8.1748 17.8 10.9248 15C13.6748 12.2 17.0331 10.8 20.9998 10.8C24.9665 10.8 28.3248 12.2 31.0748 15C33.8248 17.8 35.1998 21.2 35.1998 25.2H6.7998Z" fill="#1C1B1F"/>
</svg>
